# xmcd
#
# Track frame offsets:
#	150
#	21147
#	38980
#	57770
#	80972
#	100035
#	125772
#	142427
#	161387
#	181045
#	206372
#
# Disc length: 3075 seconds
#
# Revision: 1
# Processed by: cddbd v1.5.1PL0 Copyright (c) Steve Scherf et al.
# Submitted via: EasyCDDAExtractor 6.5.0.1
#
DISCID=960c010b
DTITLE=Boys II Men - Boys II Men- Throwback
DYEAR=1900
DGENRE=
TTITLE0=Let It Whip
TTITLE1=Let's Stay Together
TTITLE2=What You Won't Do For Love
TTITLE3=Cutie Pie
TTITLE4=Close The Door
TTITLE5=For The Love Of You
TTITLE6=Sara Smile
TTITLE7=Human Nature
TTITLE8=Time Will Reveal
TTITLE9=I Miss You 
TTITLE10=You Make Me Feel Brand New
EXTD=
EXTT0=
EXTT1=
EXTT2=
EXTT3=
EXTT4=
EXTT5=
EXTT6=
EXTT7=
EXTT8=
EXTT9=
EXTT10=
PLAYORDER=
